<?xml version="1.0" encoding="UTF-8"?>
<svg id="Layer_2" xmlns="http://www.w3.org/2000/svg" xmlns:xlink="http://www.w3.org/1999/xlink" viewBox="0 0 859.19 255">
  <defs>
    <style>
      .cls-1 {
        fill: #003368;
      }

      .cls-2 {
        fill: #00df83;
      }

      .cls-3 {
        fill: #003368;
      }

      .cls-4 {
        fill: url(#linear-gradient);
      }
    </style>
    <linearGradient id="linear-gradient" x1="416.61" y1="126.25" x2="537.96" y2="126.25" gradientUnits="userSpaceOnUse">
      <stop offset="0" stop-color="#003368"/>
      <stop offset="1" stop-color="#29b2e7"/>
    </linearGradient>
  </defs>
  <g id="Layer_1-2" data-name="Layer_1">
    <g>
      <g>
        <path class="cls-3" d="M648.96,0h-81.88c-.71,0-1.37.33-1.81.89l-50.02,65.24c-.63.83-.63,1.97.02,2.79l42.81,54.33L650.76,3.67c1.16-1.49.09-3.67-1.8-3.67Z"/>
        <path class="cls-2" d="M658.71,250.82l-100.69-127.41-42.18,54.89c-.72.94-.71,2.24.02,3.17l57.29,72.55c.49.62,1.23.98,2.02.98h81.52c2.15,0,3.36-2.49,2.02-4.18Z"/>
        <path class="cls-4" d="M474.85,42.07c-.93-1.17-2.33-1.85-3.82-1.85h-46.72c-4.07,0-6.35,4.7-3.83,7.9l57.13,72.58c1.38,1.76,1.39,4.23.03,6l-60,77.71c-2.48,3.21-.19,7.86,3.86,7.86h46.52c1.51,0,2.93-.7,3.85-1.88l65.2-84.26c1.2-1.55,1.19-3.73-.03-5.27l-62.19-78.79Z"/>
      </g>
      <g>
        <path class="cls-1" d="M41.59,155.17l-3.77-9.6H14.79l-3.77,9.6H0l20.12-49.7h12.37l20.12,49.7h-11.02ZM18.2,136.97h16.14l-7.96-20.62h-.14l-8.03,20.62Z"/>
        <path class="cls-1" d="M119.16,105.47v49.7h-10.45l-25.03-34.62h-.14v34.62h-10.24v-49.7h10.52l24.88,34.34h.21v-34.34h10.24Z"/>
        <path class="cls-1" d="M181.37,155.17l-3.77-9.6h-23.04l-3.77,9.6h-11.02l20.12-49.7h12.37l20.12,49.7h-11.02ZM157.98,136.97h16.14l-7.96-20.62h-.14l-8.03,20.62Z"/>
        <path class="cls-1" d="M212.44,105.47h10.24v40.6h26.8v9.1h-37.04v-49.7Z"/>
        <path class="cls-1" d="M312.33,105.47l-19.34,32.28v17.42h-10.17v-17.49l-19.2-32.21h11.8l12.51,22.18h.14l12.37-22.18h11.87Z"/>
        <path class="cls-1" d="M371.91,105.47v9.03h-16v40.67h-10.24v-40.67h-16.07v-9.03h42.3Z"/>
        <path class="cls-1" d="M404.69,105.47v49.7h-10.17v-49.7h10.17Z"/>
      </g>
      <g>
        <path class="cls-1" d="M620.58,102.17h10.24v40.6h26.8v9.1h-37.04v-49.7Z"/>
        <path class="cls-1" d="M716.64,151.87l-3.77-9.6h-23.04l-3.77,9.6h-11.02l20.12-49.7h12.37l20.12,49.7h-11.02ZM693.24,133.67h16.14l-7.96-20.62h-.14l-8.03,20.62Z"/>
        <path class="cls-1" d="M785.95,126.63c1.04.28,2.05.74,3.02,1.35.97.62,1.81,1.39,2.52,2.31.71.92,1.28,2,1.71,3.24.43,1.23.64,2.58.64,4.05,0,2.28-.43,4.3-1.28,6.08-.85,1.78-2.04,3.27-3.56,4.48-1.52,1.21-3.34,2.13-5.47,2.77s-4.48.96-7.04.96h-28.15v-49.7h27.02c5.59,0,9.88,1.26,12.87,3.77,2.99,2.51,4.48,6.07,4.48,10.66,0,2.32-.6,4.37-1.81,6.15-1.21,1.78-2.86,3.05-4.94,3.8v.07ZM758.51,122.72h15.93c2.99,0,5.07-.46,6.26-1.39,1.18-.92,1.78-2.33,1.78-4.23s-.62-3.28-1.85-4.3c-1.23-1.02-3.29-1.53-6.19-1.53h-15.93v11.45ZM775.57,142.84c3.03,0,5.13-.45,6.29-1.35,1.16-.9,1.74-2.3,1.74-4.19,0-1.99-.59-3.48-1.78-4.48-1.19-.99-3.27-1.49-6.26-1.49h-17.06v11.52h17.06Z"/>
        <path class="cls-1" d="M848.09,123.71c2.56.76,4.66,1.72,6.29,2.88,1.64,1.16,2.84,2.58,3.63,4.27.78,1.68,1.17,3.66,1.17,5.94,0,2.47-.5,4.69-1.49,6.68-.99,1.99-2.47,3.7-4.41,5.12-1.94,1.42-4.33,2.51-7.15,3.27-2.82.76-6.06,1.14-9.71,1.14-1.99,0-4.01-.14-6.04-.43-2.04-.28-4.01-.72-5.9-1.32-1.9-.59-3.64-1.35-5.23-2.28-1.59-.92-2.95-2.05-4.09-3.38l6.9-7.11c.85.9,1.86,1.68,3.02,2.35,1.16.66,2.39,1.22,3.7,1.67,1.3.45,2.62.79,3.95,1.03,1.33.24,2.56.36,3.7.36,4.5,0,7.71-.57,9.63-1.71,1.92-1.14,2.88-2.72,2.88-4.76,0-1.9-.85-3.34-2.56-4.34-1.71-.99-4.65-1.75-8.82-2.28l-1.99-.28c-3.41-.47-6.3-1.08-8.67-1.81-2.37-.73-4.3-1.68-5.79-2.84-1.49-1.16-2.57-2.56-3.23-4.2-.66-1.63-1-3.57-1-5.79s.49-4.34,1.46-6.19c.97-1.85,2.37-3.41,4.19-4.69,1.82-1.28,4.05-2.26,6.68-2.95,2.63-.69,5.58-1.03,8.85-1.03,4.12,0,7.76.55,10.91,1.64,3.15,1.09,6.01,2.7,8.57,4.83l-7.11,6.97c-.76-.71-1.66-1.35-2.7-1.92-1.04-.57-2.12-1.03-3.24-1.39-1.11-.36-2.23-.63-3.34-.82-1.11-.19-2.15-.28-3.09-.28-2.18,0-3.97.14-5.37.43-1.4.28-2.51.66-3.34,1.14-.83.47-1.41,1.04-1.74,1.71-.33.66-.5,1.38-.5,2.13,0,.62.12,1.22.36,1.81.24.59.7,1.15,1.39,1.67.69.52,1.67,1.01,2.95,1.46,1.28.45,2.96.84,5.05,1.17l2.06.28c3.56.47,6.61,1.09,9.17,1.85Z"/>
      </g>
    </g>
    <g>
      <path class="cls-3" d="M2.24,207.12v-28.38h4.34l12.41,20.72h-2.27l12.21-20.72h4.34l.04,28.38h-4.99l-.04-20.56h1.05l-10.38,17.32h-2.35l-10.54-17.32h1.22v20.56H2.24Z"/>
      <path class="cls-3" d="M44.66,207.12l12.77-28.38h5.19l12.81,28.38h-5.51l-10.99-25.59h2.11l-10.95,25.59h-5.43ZM50.54,200.55l1.42-4.14h15.33l1.42,4.14h-18.17Z"/>
      <path class="cls-3" d="M95.55,207.53c-2.22,0-4.34-.32-6.37-.95s-3.64-1.45-4.83-2.45l1.82-4.1c1.14.89,2.54,1.64,4.22,2.23,1.68.6,3.39.89,5.15.89,1.49,0,2.69-.16,3.61-.49.92-.32,1.59-.76,2.03-1.32.43-.55.65-1.18.65-1.89,0-.86-.31-1.56-.93-2.09-.62-.53-1.43-.95-2.41-1.26-.99-.31-2.08-.6-3.28-.87-1.2-.27-2.41-.59-3.61-.95-1.2-.37-2.3-.84-3.28-1.42-.99-.58-1.79-1.36-2.41-2.33-.62-.97-.93-2.22-.93-3.73s.41-2.95,1.24-4.24c.82-1.28,2.08-2.31,3.77-3.08,1.69-.77,3.83-1.16,6.43-1.16,1.7,0,3.39.22,5.07.65,1.68.43,3.14,1.05,4.38,1.87l-1.66,4.1c-1.27-.76-2.58-1.32-3.93-1.68-1.35-.37-2.65-.55-3.89-.55-1.46,0-2.64.18-3.55.53-.91.35-1.57.81-1.99,1.38-.42.57-.63,1.22-.63,1.95,0,.87.3,1.56.91,2.09.61.53,1.41.94,2.39,1.24.99.3,2.09.59,3.3.87,1.22.28,2.43.6,3.63.95,1.2.35,2.3.81,3.28,1.38.99.57,1.78,1.34,2.39,2.31.61.97.91,2.2.91,3.69s-.41,2.91-1.24,4.2c-.82,1.28-2.09,2.31-3.79,3.08-1.7.77-3.85,1.16-6.45,1.16Z"/>
      <path class="cls-3" d="M125.31,207.12v-23.92h-9.41v-4.46h24.09v4.46h-9.41v23.92h-5.27Z"/>
      <path class="cls-3" d="M156.94,202.7h16.02v4.42h-21.29v-28.38h20.72v4.42h-15.45v19.54ZM156.54,190.54h14.11v4.34h-14.11v-4.34Z"/>
      <path class="cls-3" d="M186.54,207.12v-28.38h11.68c2.51,0,4.67.41,6.47,1.22,1.8.81,3.18,1.97,4.16,3.49.97,1.51,1.46,3.31,1.46,5.39s-.49,3.87-1.46,5.37c-.97,1.5-2.36,2.65-4.16,3.45-1.8.8-3.95,1.2-6.47,1.2h-8.76l2.35-2.39v10.66h-5.27ZM191.81,197.02l-2.35-2.51h8.52c2.32,0,4.08-.5,5.25-1.5,1.18-1,1.76-2.39,1.76-4.18s-.59-3.2-1.76-4.18c-1.18-.97-2.93-1.46-5.25-1.46h-8.52l2.35-2.6v16.42ZM205.11,207.12l-7.18-10.3h5.64l7.22,10.3h-5.68Z"/>
      <path class="cls-3" d="M237.03,207.53c-2.16,0-4.17-.36-6.02-1.07-1.85-.72-3.46-1.73-4.83-3.04-1.37-1.31-2.43-2.86-3.18-4.64-.76-1.78-1.14-3.73-1.14-5.84s.38-4.05,1.14-5.84c.76-1.78,1.83-3.33,3.2-4.64,1.38-1.31,2.99-2.32,4.83-3.04,1.84-.72,3.85-1.07,6.04-1.07,2.32,0,4.45.4,6.37,1.2,1.92.8,3.54,1.98,4.87,3.55l-3.41,3.2c-1.03-1.11-2.18-1.94-3.45-2.49-1.27-.55-2.65-.83-4.14-.83s-2.85.24-4.08.73c-1.23.49-2.3,1.18-3.2,2.07-.91.89-1.61,1.95-2.11,3.16-.5,1.22-.75,2.56-.75,4.01s.25,2.8.75,4.01c.5,1.22,1.2,2.27,2.11,3.16.91.89,1.97,1.58,3.2,2.07,1.23.49,2.59.73,4.08.73s2.86-.28,4.14-.83c1.27-.55,2.42-1.4,3.45-2.53l3.41,3.24c-1.32,1.54-2.95,2.72-4.87,3.53-1.92.81-4.05,1.22-6.41,1.22Z"/>
      <path class="cls-3" d="M261.07,207.12v-28.38h5.27v23.92h14.84v4.46h-20.11Z"/>
      <path class="cls-3" d="M289.09,207.12l12.77-28.38h5.19l12.81,28.38h-5.51l-10.99-25.59h2.11l-10.95,25.59h-5.43ZM294.97,200.55l1.42-4.14h15.33l1.42,4.14h-18.17Z"/>
      <path class="cls-3" d="M339.98,207.53c-2.22,0-4.34-.32-6.37-.95s-3.64-1.45-4.83-2.45l1.82-4.1c1.14.89,2.54,1.64,4.22,2.23,1.68.6,3.39.89,5.15.89,1.49,0,2.69-.16,3.61-.49.92-.32,1.59-.76,2.03-1.32.43-.55.65-1.18.65-1.89,0-.86-.31-1.56-.93-2.09-.62-.53-1.43-.95-2.41-1.26-.99-.31-2.08-.6-3.28-.87-1.2-.27-2.41-.59-3.61-.95-1.2-.37-2.3-.84-3.28-1.42-.99-.58-1.79-1.36-2.41-2.33-.62-.97-.93-2.22-.93-3.73s.41-2.95,1.24-4.24c.82-1.28,2.08-2.31,3.77-3.08,1.69-.77,3.83-1.16,6.43-1.16,1.7,0,3.39.22,5.07.65,1.68.43,3.14,1.05,4.38,1.87l-1.66,4.1c-1.27-.76-2.58-1.32-3.93-1.68-1.35-.37-2.65-.55-3.89-.55-1.46,0-2.64.18-3.55.53-.91.35-1.57.81-1.99,1.38-.42.57-.63,1.22-.63,1.95,0,.87.3,1.56.91,2.09.61.53,1.41.94,2.39,1.24.99.3,2.09.59,3.3.87,1.22.28,2.43.6,3.63.95,1.2.35,2.3.81,3.28,1.38.99.57,1.78,1.34,2.39,2.31.61.97.91,2.2.91,3.69s-.41,2.91-1.24,4.2c-.82,1.28-2.09,2.31-3.79,3.08-1.7.77-3.85,1.16-6.45,1.16Z"/>
      <path class="cls-3" d="M373.19,207.53c-2.22,0-4.34-.32-6.37-.95s-3.64-1.45-4.83-2.45l1.82-4.1c1.14.89,2.54,1.64,4.22,2.23,1.68.6,3.39.89,5.15.89,1.49,0,2.69-.16,3.61-.49.92-.32,1.59-.76,2.03-1.32.43-.55.65-1.18.65-1.89,0-.86-.31-1.56-.93-2.09-.62-.53-1.43-.95-2.41-1.26-.99-.31-2.08-.6-3.28-.87-1.2-.27-2.41-.59-3.61-.95-1.2-.37-2.3-.84-3.28-1.42-.99-.58-1.79-1.36-2.41-2.33-.62-.97-.93-2.22-.93-3.73s.41-2.95,1.24-4.24c.82-1.28,2.08-2.31,3.77-3.08,1.69-.77,3.83-1.16,6.43-1.16,1.7,0,3.39.22,5.07.65,1.68.43,3.14,1.05,4.38,1.87l-1.66,4.1c-1.27-.76-2.58-1.32-3.93-1.68-1.35-.37-2.65-.55-3.89-.55-1.46,0-2.64.18-3.55.53-.91.35-1.57.81-1.99,1.38-.42.57-.63,1.22-.63,1.95,0,.87.3,1.56.91,2.09.61.53,1.41.94,2.39,1.24.99.3,2.09.59,3.3.87,1.22.28,2.43.6,3.63.95,1.2.35,2.3.81,3.28,1.38.99.57,1.78,1.34,2.39,2.31.61.97.91,2.2.91,3.69s-.41,2.91-1.24,4.2c-.82,1.28-2.09,2.31-3.79,3.08-1.7.77-3.85,1.16-6.45,1.16Z"/>
    </g>
  </g>
</svg>